<svg width="24" height="24" viewBox="0 0 24 24" fill="none" xmlns="http://www.w3.org/2000/svg">
  <path d="M13 5.5H11V7.5H13V5.5Z" fill="#E6AA00"/>
  <path d="M13 8.5H11V10.5H13V8.5Z" fill="#E6AA00"/>
  <path d="M10 8.5H8V10.5H10V8.5Z" fill="#E6AA00"/>
  <path d="M7 8.5H5V10.5H7V8.5Z" fill="#E6AA00"/>
  <path d="M16 11.5H14V13.5H16V11.5Z" fill="#E6AA00"/>
  <path d="M13 11.5H11V13.5H13V11.5Z" fill="#E6AA00"/>
  <path d="M10 11.5H8V13.5H10V11.5Z" fill="#E6AA00"/>
  <path d="M7 11.5H5V13.5H7V11.5Z" fill="#E6AA00"/>
  <path d="M21.8 12.5C21.5 12.2 20.8 12 20 12C19.7 12 19.4 12 19.2 12.1C19 11.3 18.3 10.7 17.4 10.4C15.9 9.9 14.4 10.3 13.5 11.3C13.2 11.2 12.8 11.1 12.4 11.1H4.2C3.5 11.1 3 11.6 3 12.3V16.5C3 17.2 3.5 17.7 4.2 17.7H6.8C7.2 19 8.4 20 9.9 20C11.4 20 12.6 19 13 17.7H15.8C16.2 19 17.4 20 18.9 20C20.4 20 21.6 19 22 17.7C22.6 17.6 23 17.1 23 16.5V14.1C23 13.4 22.5 12.8 21.8 12.5ZM9.9 18.8C9 18.8 8.2 18 8.2 17.1C8.2 16.2 9 15.4 9.9 15.4C10.8 15.4 11.6 16.2 11.6 17.1C11.6 18 10.8 18.8 9.9 18.8ZM18.9 18.8C18 18.8 17.2 18 17.2 17.1C17.2 16.2 18 15.4 18.9 15.4C19.8 15.4 20.6 16.2 20.6 17.1C20.6 18 19.8 18.8 18.9 18.8Z" fill="#E6AA00"/>
</svg>