<svg width="24" height="24" viewBox="0 0 24 24" fill="none" xmlns="http://www.w3.org/2000/svg">
  <path d="M12 2C6.477 2 2 6.477 2 12C2 16.991 5.657 21.128 10.438 22.279V18.707C9.939 18.807 9.478 18.812 8.983 18.724C8.29 18.603 7.714 18.242 7.311 17.646C7.047 17.255 6.619 16.899 6.177 16.939L6.062 15.947C7.019 15.831 7.825 16.39 8.3 17.094C8.517 17.42 8.764 17.619 9.069 17.708C9.364 17.793 9.673 17.755 10.052 17.635C10.145 16.942 10.464 16.551 10.733 16.293C7.97 15.849 6.469 14.366 6.469 11.915C6.469 10.911 6.834 9.977 7.475 9.207C7.312 8.496 7.312 7.575 7.642 6.641C8.619 6.641 9.258 7.161 9.967 7.719C10.733 7.508 11.556 7.391 12.405 7.391C13.255 7.391 14.078 7.508 14.844 7.719C15.552 7.161 16.192 6.641 17.169 6.641C17.5 7.575 17.5 8.496 17.336 9.207C17.977 9.977 18.342 10.911 18.342 11.915C18.342 14.366 16.842 15.849 14.078 16.293C14.415 16.62 14.745 17.245 14.745 18.147V22.279C19.526 21.128 23.183 16.991 23.183 12C23.183 6.477 18.706 2 13.183 2H12Z" fill="#E6AA00"/>
</svg>
